<svg width="23" height="23" viewBox="0 0 23 23" fill="none" xmlns="http://www.w3.org/2000/svg">
<path d="M4.6 14.375H6.13333C6.9805 14.375 7.66667 13.731 7.66667 12.9374V11.5C7.66667 10.7058 6.9805 10.0625 6.13333 10.0625H4.6C3.75283 10.0625 3.06667 10.7058 3.06667 11.5V12.9374C3.06667 13.731 3.75283 14.375 4.6 14.375ZM4.6 11.5H6.13333V12.9374H4.6V11.5ZM16.8667 20.1249H18.4C19.2472 20.1249 19.9334 19.4817 19.9334 18.6875V17.25C19.9334 16.4558 19.2472 15.8125 18.4 15.8125H16.8667C16.0203 15.8125 15.3333 16.4558 15.3333 17.25V18.6875C15.3333 19.4817 16.0195 20.1249 16.8667 20.1249ZM16.8667 17.25H18.4V18.6875H16.8667V17.25ZM16.8667 14.375H18.4C19.2472 14.375 19.9334 13.731 19.9334 12.9374V11.5C19.9334 10.7058 19.2472 10.0625 18.4 10.0625H16.8667C16.0203 10.0625 15.3333 10.7058 15.3333 11.5V12.9374C15.3333 13.731 16.0195 14.375 16.8667 14.375ZM16.8667 11.5H18.4V12.9374H16.8667V11.5ZM19.9334 1.4375H16.8667V0.718749C16.8667 0.321992 16.5232 0 16.1 0C15.6769 0 15.3334 0.321992 15.3334 0.718749V1.4375H7.6667V0.718749C7.66667 0.321992 7.32321 0 6.9 0C6.47679 0 6.13333 0.321992 6.13333 0.718749V1.4375H3.06667C1.37312 1.4375 0 2.7248 0 4.31249V20.1249C0 21.7127 1.37312 23 3.06667 23H19.9333C21.6269 23 23 21.7127 23 20.1249V4.31249C23 2.72476 21.6269 1.4375 19.9334 1.4375ZM21.4667 20.1249C21.4667 20.9192 20.7805 21.5625 19.9334 21.5625H3.06667C2.2195 21.5625 1.53333 20.9184 1.53333 20.1249V7.18749H21.4667V20.1249H21.4667ZM21.4667 5.74999H1.53333V4.31249C1.53333 3.51828 2.2195 2.875 3.06667 2.875H6.13333V3.59374C6.13333 3.9905 6.47679 4.31249 6.9 4.31249C7.32321 4.31249 7.66667 3.9905 7.66667 3.59374V2.875H15.3333V3.59374C15.3333 3.9905 15.6768 4.31249 16.1 4.31249C16.5232 4.31249 16.8667 3.9905 16.8667 3.59374V2.875H19.9334C20.7805 2.875 21.4667 3.51828 21.4667 4.31249V5.74999ZM10.7333 20.1249H12.2667C13.1138 20.1249 13.8 19.4817 13.8 18.6875V17.25C13.8 16.4558 13.1138 15.8125 12.2667 15.8125H10.7333C9.88696 15.8125 9.2 16.4558 9.2 17.25V18.6875C9.2 19.4817 9.88617 20.1249 10.7333 20.1249ZM10.7333 17.25H12.2667V18.6875H10.7333V17.25ZM10.7333 14.375H12.2667C13.1138 14.375 13.8 13.731 13.8 12.9374V11.5C13.8 10.7058 13.1138 10.0625 12.2667 10.0625H10.7333C9.88696 10.0625 9.2 10.7058 9.2 11.5V12.9374C9.2 13.731 9.88617 14.375 10.7333 14.375ZM10.7333 11.5H12.2667V12.9374H10.7333V11.5ZM4.6 20.1249H6.13333C6.9805 20.1249 7.66667 19.4817 7.66667 18.6875V17.25C7.66667 16.4558 6.9805 15.8125 6.13333 15.8125H4.6C3.75283 15.8125 3.06667 16.4558 3.06667 17.25V18.6875C3.06667 19.4817 3.75283 20.1249 4.6 20.1249ZM4.6 17.25H6.13333V18.6875H4.6V17.25Z" fill="#6A5784" fill-opacity="0.2"/>
</svg>
