<svg width="29" height="29" viewBox="0 0 29 29" fill="none" xmlns="http://www.w3.org/2000/svg">
<path d="M14.6553 2.71462C18.4076 2.71462 18.9193 2.71462 20.4543 2.71462C21.8187 2.71462 22.501 3.05573 23.0126 3.22629C23.6949 3.56741 24.2066 3.73796 24.7182 4.24964C25.2299 4.76131 25.571 5.27298 25.7416 5.95521C25.9121 6.46689 26.0827 7.14912 26.2532 8.51358C26.2532 10.0486 26.2532 10.3897 26.2532 14.3125C26.2532 18.2354 26.2532 18.5765 26.2532 20.1115C26.2532 21.476 25.9121 22.1582 25.7416 22.6699C25.4005 23.3521 25.2299 23.8638 24.7182 24.3755C24.2066 24.8871 23.6949 25.2282 23.0126 25.3988C22.501 25.5694 21.8187 25.7399 20.4543 25.9105C18.9193 25.9105 18.5781 25.9105 14.6553 25.9105C10.7325 25.9105 10.3914 25.9105 8.85635 25.9105C7.49189 25.9105 6.80966 25.5694 6.29799 25.3988C5.61576 25.0577 5.10408 24.8871 4.59241 24.3755C4.08074 23.8638 3.73962 23.3521 3.56906 22.6699C3.39851 22.1582 3.22795 21.476 3.05739 20.1115C3.05739 18.5765 3.05739 18.2354 3.05739 14.3125C3.05739 10.3897 3.05739 10.0486 3.05739 8.51358C3.05739 7.14912 3.39851 6.46689 3.56906 5.95521C3.91018 5.27298 4.08074 4.76131 4.59241 4.24964C5.10408 3.73796 5.61576 3.39685 6.29799 3.22629C6.80966 3.05573 7.49189 2.88517 8.85635 2.71462C10.3914 2.71462 10.903 2.71462 14.6553 2.71462ZM14.6553 0.15625C10.7325 0.15625 10.3914 0.15625 8.85635 0.15625C7.32133 0.15625 6.29799 0.497366 5.4452 0.838482C4.59241 1.1796 3.73962 1.69127 2.88683 2.54406C2.03404 3.39685 1.69293 4.07908 1.18126 5.10243C0.84014 5.95521 0.669581 6.97856 0.499023 8.51358C0.499023 10.0486 0.499023 10.5603 0.499023 14.3125C0.499023 18.2354 0.499023 18.5765 0.499023 20.1115C0.499023 21.6465 0.84014 22.6699 1.18126 23.5227C1.52237 24.3755 2.03404 25.2282 2.88683 26.081C3.73962 26.9338 4.42185 27.2749 5.4452 27.7866C6.29799 28.1277 7.32133 28.2983 8.85635 28.4688C10.3914 28.4688 10.903 28.4688 14.6553 28.4688C18.4076 28.4688 18.9193 28.4688 20.4543 28.4688C21.9893 28.4688 23.0126 28.1277 23.8654 27.7866C24.7182 27.4455 25.571 26.9338 26.4238 26.081C27.2766 25.2282 27.6177 24.546 28.1294 23.5227C28.4705 22.6699 28.6411 21.6465 28.8116 20.1115C28.8116 18.5765 28.8116 18.0648 28.8116 14.3125C28.8116 10.5603 28.8116 10.0486 28.8116 8.51358C28.8116 6.97856 28.4705 5.95521 28.1294 5.10243C27.7883 4.24964 27.2766 3.39685 26.4238 2.54406C25.571 1.69127 24.8888 1.35016 23.8654 0.838482C23.0126 0.497366 21.9893 0.326808 20.4543 0.15625C18.9193 0.15625 18.5781 0.15625 14.6553 0.15625Z" fill="#170E39"/>
<path d="M14.6553 6.97856C10.5619 6.97856 7.32133 10.2192 7.32133 14.3125C7.32133 18.4059 10.5619 21.6465 14.6553 21.6465C18.7487 21.6465 21.9893 18.4059 21.9893 14.3125C21.9893 10.2192 18.7487 6.97856 14.6553 6.97856ZM14.6553 19.0882C12.097 19.0882 9.8797 17.0415 9.8797 14.3125C9.8797 11.7542 11.9264 9.53693 14.6553 9.53693C17.2137 9.53693 19.4309 11.5836 19.4309 14.3125C19.4309 16.8709 17.2137 19.0882 14.6553 19.0882Z" fill="#170E39"/>
<path d="M22.1599 8.51358C23.1018 8.51358 23.8654 7.74997 23.8654 6.808C23.8654 5.86604 23.1018 5.10243 22.1599 5.10243C21.2179 5.10243 20.4543 5.86604 20.4543 6.808C20.4543 7.74997 21.2179 8.51358 22.1599 8.51358Z" fill="#170E39"/>
</svg>
