<svg width="66" height="62" viewBox="0 0 66 62" fill="none" xmlns="http://www.w3.org/2000/svg">
<g clip-path="url(#clip0_198_1094)">
<path d="M23.1043 4.76953H8.28673C6.22849 4.76953 4.47935 5.46512 3.03848 6.8559C1.59829 8.24694 0.87793 9.93593 0.87793 11.9235V26.2309C0.87793 28.2184 1.59789 29.9071 3.03848 31.2979C4.47921 32.6885 6.2289 33.3844 8.28673 33.3844H16.9302C17.9588 33.3844 18.8337 33.7323 19.554 34.4276C20.2744 35.1226 20.6344 35.9676 20.6344 36.9616V38.1533C20.6344 40.7864 19.6696 43.0337 17.7404 44.8971C15.8111 46.7595 13.4832 47.691 10.756 47.691H8.28673C7.61746 47.691 7.03887 47.9276 6.54989 48.3993C6.06131 48.8709 5.81682 49.43 5.81682 50.0758V54.8456C5.81682 55.4905 6.06131 56.0506 6.54989 56.5224C7.03927 56.9939 7.61732 57.2306 8.28673 57.2306H10.7561C13.4317 57.2306 15.9849 56.7268 18.416 55.7212C20.847 54.7154 22.9499 53.355 24.725 51.641C26.4997 49.9268 27.9082 47.8967 28.95 45.5492C29.9916 43.2018 30.5126 40.7366 30.5126 38.1534V11.923C30.5126 9.9354 29.7922 8.24655 28.3519 6.85577C26.9116 5.46499 25.162 4.76953 23.1043 4.76953Z" fill="#170E39"/>
<path d="M62.9249 6.8559C61.4847 5.46512 59.7354 4.76953 57.6772 4.76953H42.8601C40.8019 4.76953 39.0528 5.46512 37.6124 6.8559C36.1722 8.24707 35.4521 9.93593 35.4521 11.9235V26.2309C35.4521 28.2184 36.1722 29.9071 37.6124 31.2979C39.0528 32.6885 40.802 33.3844 42.8601 33.3844H51.5036C52.5322 33.3844 53.4077 33.7323 54.128 34.4276C54.8475 35.1229 55.2084 35.9676 55.2084 36.9616V38.1533C55.2084 40.7864 54.2435 43.0337 52.3139 44.8971C50.3848 46.7595 48.0574 47.691 45.3299 47.691H42.8601C42.1914 47.691 41.6123 47.9276 41.1238 48.3993C40.635 48.8709 40.3902 49.43 40.3902 50.0758V54.8456C40.3902 55.4905 40.635 56.0506 41.1238 56.5224C41.6121 56.9939 42.1913 57.2306 42.8601 57.2306H45.3299C48.0051 57.2306 50.5582 56.7268 52.9896 55.7212C55.4202 54.7154 57.5227 53.355 59.298 51.641C61.0731 49.9268 62.4824 47.8962 63.5235 45.5492C64.565 43.2023 65.0863 40.7366 65.0863 38.1534V11.923C65.0859 9.9354 64.3662 8.24655 62.9249 6.8559Z" fill="#170E39"/>
</g>
<defs>
<clipPath id="clip0_198_1094">
<rect width="64.2086" height="62" fill="white" transform="translate(0.87793)"/>
</clipPath>
</defs>
</svg>
