<svg width="30" height="31" viewBox="0 0 30 31" fill="none" xmlns="http://www.w3.org/2000/svg">
<path d="M25.534 5.07584C22.7373 2.28882 19.0083 0.740479 15.0721 0.740479C6.88912 0.740479 0.259831 7.34675 0.259831 15.5014C0.259831 18.0819 0.984911 20.6625 2.2279 22.8302L0.15625 30.4687L8.02853 28.4042C10.2038 29.5397 12.5862 30.159 15.0721 30.159C23.2552 30.159 29.8845 23.5528 29.8845 15.3981C29.7809 11.5789 28.3307 7.86286 25.534 5.07584ZM22.2193 20.7657C21.9086 21.5915 20.4584 22.4173 19.7334 22.5205C19.1119 22.6237 18.2832 22.6238 17.4545 22.4173C16.9366 22.2109 16.2116 22.0044 15.3829 21.5915C11.6539 20.0432 9.27152 16.3271 9.06436 16.0175C8.85719 15.811 7.51062 14.0562 7.51062 12.1982C7.51062 10.3402 8.44286 9.51443 8.75361 9.10154C9.06435 8.68865 9.47869 8.68865 9.78943 8.68865C9.9966 8.68865 10.3073 8.68865 10.5145 8.68865C10.7217 8.68865 11.0324 8.58542 11.3432 9.30799C11.6539 10.0305 12.379 11.8886 12.4826 11.9918C12.5862 12.1982 12.5862 12.4047 12.4826 12.6111C12.379 12.8176 12.2754 13.024 12.0682 13.2305C11.8611 13.4369 11.6539 13.7466 11.5503 13.8498C11.3432 14.0562 11.136 14.2627 11.3432 14.5724C11.5503 14.9852 12.2754 16.1207 13.4148 17.1529C14.865 18.3916 16.0044 18.8045 16.4187 19.0109C16.8331 19.2174 17.0402 19.1142 17.2474 18.9077C17.4545 18.7013 18.1796 17.8755 18.3868 17.4626C18.594 17.0497 18.9047 17.1529 19.2155 17.2562C19.5262 17.3594 21.3907 18.2884 21.7014 18.4948C22.1158 18.7013 22.3229 18.8045 22.4265 18.9077C22.5301 19.2174 22.5301 19.94 22.2193 20.7657Z" fill="#170E39"/>
</svg>
